<?xml version="1.0" encoding="UTF-8"?>
<!-- Created with Inkscape (http://www.inkscape.org/) -->
<svg width="512" height="512" version="1.1" viewBox="0 0 135.47 135.47" xmlns="http://www.w3.org/2000/svg">
 <g transform="matrix(.70711 -.70711 .70711 .70711 -28.057 67.733)">
  <path d="m116.36 27.967v79.533c0 4.9101-3.9529 8.8629-8.8629 8.8629h-79.533c-4.9101 0-8.8629-3.9529-8.8629-8.8629v-79.533c0-4.9101 3.9529-8.8629 8.8629-8.8629h79.533c4.9101 0 8.8629 3.9529 8.8629 8.8629z" color="#000000" fill="#fc0" stroke-linecap="round" stroke-linejoin="round" stroke-width="5.2916"/>
  <path d="m119.01 27.967c0-6.3301-5.1777-11.508-11.508-11.508h-79.533c-6.3301 0-11.508 5.1777-11.508 11.508v79.533c0 6.3301 5.1777 11.508 11.508 11.508h79.533c6.3301 0 11.508-5.1777 11.508-11.508zm-5.291 0v79.533c0 3.49-2.7268 6.2168-6.2168 6.2168h-79.533c-3.49 0-6.2168-2.7268-6.2168-6.2168v-79.533c0-3.49 2.7268-6.2168 6.2168-6.2168h79.533c3.49 0 6.2168 2.7268 6.2168 6.2168z" color="#000000" stroke-linecap="round" stroke-linejoin="round" stroke-width=".99999"/>
  <g transform="translate(92.276 120.32)" stroke-width=".99999">
   <g transform="matrix(.1512 0 0 .10007 -125.1 -63.683)" stroke-linejoin="round">
    <path d="m833.96 31.933-337.77-2e-6 168.88-292.51z" color="#000000" stroke-width="53.776"/>
    <path transform="matrix(1.7499 0 0 2.6441 217.1 -566.04)" d="m256 102.05c-5.1689-2.2e-4 -9.944 5.7272-12.529 8.6894l-96.51 110.63c-5.5671 6.3836 1.3925 14.362 12.529 14.363h46.512v174.22h99.996v-174.22h46.512c11.137-1e-3 18.096-7.9797 12.529-14.363-32.17-36.876-64.34-73.753-96.51-110.63-2.5851-2.962-7.3608-8.6894-12.529-8.6894z" color="#000000" stroke-width=".49371"/>
   </g>
  </g>
 </g>
</svg>
